<svg width="9" height="12" viewBox="0 0 9 12" fill="none" xmlns="http://www.w3.org/2000/svg">
<path d="M4.11328 0C4.23828 0 4.35547 0.0253906 4.46484 0.0761719C4.57422 0.126953 4.68164 0.203125 4.78711 0.304688L7.92773 3.31641C8.01367 3.40234 8.08203 3.49609 8.13281 3.59766C8.1875 3.69922 8.21484 3.81055 8.21484 3.93164C8.21484 4.0918 8.17578 4.23438 8.09766 4.35938C8.02344 4.48438 7.92188 4.58203 7.79297 4.65234C7.66797 4.72266 7.5332 4.75781 7.38867 4.75781C7.28711 4.75781 7.18359 4.74023 7.07812 4.70508C6.97266 4.66992 6.875 4.60742 6.78516 4.51758L4.11328 1.9043L1.43555 4.51758C1.3457 4.60742 1.24805 4.66992 1.14258 4.70508C1.03711 4.74023 0.933594 4.75781 0.832031 4.75781C0.6875 4.75781 0.552734 4.72266 0.427734 4.65234C0.302734 4.58203 0.199219 4.48438 0.117188 4.35938C0.0390625 4.23438 0 4.0918 0 3.93164C0 3.81055 0.0273438 3.69922 0.0820312 3.59766C0.140625 3.49609 0.210938 3.40234 0.292969 3.31641L3.42773 0.304688C3.5332 0.203125 3.64062 0.126953 3.75 0.0761719C3.86328 0.0253906 3.98438 0 4.11328 0ZM4.11328 11.707C3.98438 11.707 3.86328 11.6797 3.75 11.625C3.64062 11.5742 3.5332 11.498 3.42773 11.3965L0.292969 8.38477C0.210938 8.30273 0.140625 8.21094 0.0820312 8.10938C0.0273438 8.00781 0 7.89648 0 7.77539C0 7.61523 0.0390625 7.47266 0.117188 7.34766C0.199219 7.21875 0.302734 7.12109 0.427734 7.05469C0.552734 6.98438 0.6875 6.94922 0.832031 6.94922C0.933594 6.94922 1.03711 6.9668 1.14258 7.00195C1.24805 7.03711 1.3457 7.09766 1.43555 7.18359L4.11328 9.79688L6.78516 7.18359C6.875 7.09766 6.97266 7.03711 7.07812 7.00195C7.18359 6.9668 7.28711 6.94922 7.38867 6.94922C7.5332 6.94922 7.66797 6.98438 7.79297 7.05469C7.92188 7.12109 8.02344 7.21875 8.09766 7.34766C8.17578 7.47266 8.21484 7.61523 8.21484 7.77539C8.21484 7.89648 8.1875 8.00781 8.13281 8.10938C8.08203 8.21094 8.01367 8.30273 7.92773 8.38477L4.78711 11.3965C4.68164 11.498 4.57422 11.5742 4.46484 11.625C4.35547 11.6797 4.23828 11.707 4.11328 11.707Z" fill="black" style="fill:black;fill-opacity:1;"/>
</svg>
