<svg width="9" height="12" viewBox="0 0 9 12" fill="none" xmlns="http://www.w3.org/2000/svg">
<path d="M4.10156 4.75781C3.97656 4.75781 3.85937 4.73242 3.75 4.68164C3.64062 4.63086 3.5332 4.55469 3.42773 4.45312L0.287109 1.44141C0.201172 1.35547 0.132813 1.26172 0.0820314 1.16016C0.0273439 1.05859 1.25159e-07 0.947265 1.35746e-07 0.826172C1.49746e-07 0.666015 0.0390627 0.523437 0.117188 0.398437C0.191406 0.273437 0.292969 0.175781 0.421875 0.105468C0.546875 0.0351559 0.681641 -2.99491e-07 0.826172 -2.86856e-07C0.927735 -2.77977e-07 1.03125 0.0175779 1.13672 0.0527341C1.24219 0.0878904 1.33984 0.15039 1.42969 0.240234L4.10156 2.85352L6.7793 0.240235C6.86914 0.150391 6.9668 0.0878909 7.07227 0.0527346C7.17773 0.0175784 7.28125 2.77465e-07 7.38281 2.86344e-07C7.52734 2.98979e-07 7.66211 0.0351566 7.78711 0.105469C7.91211 0.175782 8.01563 0.273438 8.09766 0.398438C8.17578 0.523438 8.21484 0.666016 8.21484 0.826172C8.21484 0.947266 8.1875 1.05859 8.13281 1.16016C8.07422 1.26172 8.00391 1.35547 7.92188 1.44141L4.78711 4.45312C4.68164 4.55469 4.57422 4.63086 4.46484 4.68164C4.35156 4.73242 4.23047 4.75781 4.10156 4.75781ZM4.10156 6.94922C4.23047 6.94922 4.35156 6.97656 4.46484 7.03125C4.57422 7.08203 4.68164 7.1582 4.78711 7.25977L7.92188 10.2715C8.00391 10.3535 8.07422 10.4453 8.13281 10.5469C8.1875 10.6484 8.21484 10.7598 8.21484 10.8809C8.21484 11.041 8.17578 11.1836 8.09766 11.3086C8.01562 11.4375 7.91211 11.5352 7.78711 11.6016C7.66211 11.6719 7.52734 11.707 7.38281 11.707C7.28125 11.707 7.17773 11.6895 7.07227 11.6543C6.9668 11.6191 6.86914 11.5586 6.7793 11.4727L4.10156 8.85938L1.42969 11.4727C1.33984 11.5586 1.24219 11.6191 1.13672 11.6543C1.03125 11.6895 0.927734 11.707 0.826172 11.707C0.68164 11.707 0.546875 11.6719 0.421875 11.6016C0.292969 11.5352 0.191406 11.4375 0.117187 11.3086C0.0390623 11.1836 -1.49745e-07 11.041 -1.35744e-07 10.8809C-1.25157e-07 10.7598 0.0273436 10.6484 0.0820311 10.5469C0.132812 10.4453 0.201172 10.3535 0.287109 10.2715L3.42773 7.25977C3.5332 7.1582 3.64063 7.08203 3.75 7.03125C3.85938 6.97656 3.97656 6.94922 4.10156 6.94922Z" fill="black" style="fill:black;fill-opacity:1;"/>
</svg>
